<?xml version="1.0" encoding="UTF-8" standalone="no"?>
<!DOCTYPE svg PUBLIC "-//W3C//DTD SVG 1.1//EN"
 "http://www.w3.org/Graphics/SVG/1.1/DTD/svg11.dtd">
<!-- Generated by graphviz version 2.43.0 (0)
 -->
<!-- Title: snakemake_dag Pages: 1 -->
<svg width="672pt" height="207pt"
 viewBox="0.00 0.00 672.00 207.00" xmlns="http://www.w3.org/2000/svg" xmlns:xlink="http://www.w3.org/1999/xlink">
<g id="graph0" class="graph" transform="scale(1 1) rotate(0) translate(4 203)">
<title>snakemake_dag</title>
<polygon fill="white" stroke="transparent" points="-4,4 -4,-203 668,-203 668,4 -4,4"/>
<g id="clust1" class="cluster">
<title>cluster_0</title>
<path fill="white" stroke="black" stroke-width="2" d="M20,-8C20,-8 86,-8 86,-8 92,-8 98,-14 98,-20 98,-20 98,-179 98,-179 98,-185 92,-191 86,-191 86,-191 20,-191 20,-191 14,-191 8,-185 8,-179 8,-179 8,-20 8,-20 8,-14 14,-8 20,-8"/>
<text text-anchor="middle" x="53" y="-179" font-family="sans" font-size="10.00">Input</text>
</g>
<g id="clust2" class="cluster">
<title>cluster_1</title>
<path fill="white" stroke="black" stroke-width="2" d="M126,-94C126,-94 268,-94 268,-94 274,-94 280,-100 280,-106 280,-106 280,-175 280,-175 280,-181 274,-187 268,-187 268,-187 126,-187 126,-187 120,-187 114,-181 114,-175 114,-175 114,-106 114,-106 114,-100 120,-94 126,-94"/>
<text text-anchor="middle" x="197" y="-175" font-family="sans" font-size="10.00">Preprocess</text>
</g>
<g id="clust3" class="cluster">
<title>cluster_2</title>
<path fill="white" stroke="black" stroke-width="2" d="M308,-73C308,-73 450,-73 450,-73 456,-73 462,-79 462,-85 462,-85 462,-136 462,-136 462,-142 456,-148 450,-148 450,-148 308,-148 308,-148 302,-148 296,-142 296,-136 296,-136 296,-85 296,-85 296,-79 302,-73 308,-73"/>
<text text-anchor="middle" x="379" y="-136" font-family="sans" font-size="10.00">Kraken2</text>
</g>
<g id="clust4" class="cluster">
<title>cluster_3</title>
<path fill="white" stroke="black" stroke-width="2" d="M490,-44C490,-44 644,-44 644,-44 650,-44 656,-50 656,-56 656,-56 656,-107 656,-107 656,-113 650,-119 644,-119 644,-119 490,-119 490,-119 484,-119 478,-113 478,-107 478,-107 478,-56 478,-56 478,-50 484,-44 490,-44"/>
<text text-anchor="middle" x="567" y="-107" font-family="sans" font-size="10.00">Quantify</text>
</g>
<!-- reads -->
<g id="node1" class="node">
<title>reads</title>
<path fill="none" stroke="#5692d8" stroke-width="2" d="M68,-162C68,-162 38,-162 38,-162 32,-162 26,-156 26,-150 26,-150 26,-138 26,-138 26,-132 32,-126 38,-126 38,-126 68,-126 68,-126 74,-126 80,-132 80,-138 80,-138 80,-150 80,-150 80,-156 74,-162 68,-162"/>
<text text-anchor="middle" x="53" y="-147" font-family="sans" font-size="10.00">FASTQ</text>
<text text-anchor="middle" x="53" y="-136" font-family="sans" font-size="10.00">reads</text>
</g>
<!-- fastp -->
<g id="node4" class="node">
<title>fastp</title>
<path fill="none" stroke="#566bd8" stroke-width="2" d="M166,-154C166,-154 136,-154 136,-154 130,-154 124,-148 124,-142 124,-142 124,-130 124,-130 124,-124 130,-118 136,-118 136,-118 166,-118 166,-118 172,-118 178,-124 178,-130 178,-130 178,-142 178,-142 178,-148 172,-154 166,-154"/>
<text text-anchor="middle" x="151" y="-133.5" font-family="sans" font-size="10.00">fastp</text>
</g>
<!-- reads&#45;&gt;fastp -->
<g id="edge4" class="edge">
<title>reads&#45;&gt;fastp</title>
<path fill="none" stroke="grey" stroke-width="2" d="M80.23,-141.81C90.5,-140.96 102.45,-139.96 113.53,-139.04"/>
<polygon fill="grey" stroke="grey" stroke-width="2" points="114.12,-142.5 123.8,-138.18 113.54,-135.53 114.12,-142.5"/>
</g>
<!-- pathogens -->
<g id="node2" class="node">
<title>pathogens</title>
<path fill="none" stroke="#d88d56" stroke-width="2" d="M76,-54C76,-54 30,-54 30,-54 24,-54 18,-48 18,-42 18,-42 18,-30 18,-30 18,-24 24,-18 30,-18 30,-18 76,-18 76,-18 82,-18 88,-24 88,-30 88,-30 88,-42 88,-42 88,-48 82,-54 76,-54"/>
<text text-anchor="middle" x="53" y="-39" font-family="sans" font-size="10.00">Pathogenic</text>
<text text-anchor="middle" x="53" y="-28" font-family="sans" font-size="10.00">Genomes</text>
</g>
<!-- bowtie2_pathogens -->
<g id="node8" class="node">
<title>bowtie2_pathogens</title>
<path fill="none" stroke="#d86656" stroke-width="2" d="M544,-90C544,-90 500,-90 500,-90 494,-90 488,-84 488,-78 488,-78 488,-66 488,-66 488,-60 494,-54 500,-54 500,-54 544,-54 544,-54 550,-54 556,-60 556,-66 556,-66 556,-78 556,-78 556,-84 550,-90 544,-90"/>
<text text-anchor="middle" x="522" y="-75" font-family="sans" font-size="10.00">bowtie2</text>
<text text-anchor="middle" x="522" y="-64" font-family="sans" font-size="10.00">pathogens</text>
</g>
<!-- pathogens&#45;&gt;bowtie2_pathogens -->
<g id="edge6" class="edge">
<title>pathogens&#45;&gt;bowtie2_pathogens</title>
<path fill="none" stroke="grey" stroke-width="2" d="M88.1,-38.34C125.58,-40.7 187.55,-44 241,-44 241,-44 241,-44 335,-44 384.4,-44 440.37,-53.78 477.89,-61.78"/>
<polygon fill="grey" stroke="grey" stroke-width="2" points="477.45,-65.26 487.96,-63.98 478.94,-58.42 477.45,-65.26"/>
</g>
<!-- reference -->
<g id="node3" class="node">
<title>reference</title>
<path fill="none" stroke="#d8cb56" stroke-width="2" d="M70,-108C70,-108 36,-108 36,-108 30,-108 24,-102 24,-96 24,-96 24,-84 24,-84 24,-78 30,-72 36,-72 36,-72 70,-72 70,-72 76,-72 82,-78 82,-84 82,-84 82,-96 82,-96 82,-102 76,-108 70,-108"/>
<text text-anchor="middle" x="53" y="-93" font-family="sans" font-size="10.00">Host</text>
<text text-anchor="middle" x="53" y="-82" font-family="sans" font-size="10.00">Genome</text>
</g>
<!-- bowtie2_host -->
<g id="node5" class="node">
<title>bowtie2_host</title>
<path fill="none" stroke="#56d8a2" stroke-width="2" d="M258,-140C258,-140 226,-140 226,-140 220,-140 214,-134 214,-128 214,-128 214,-116 214,-116 214,-110 220,-104 226,-104 226,-104 258,-104 258,-104 264,-104 270,-110 270,-116 270,-116 270,-128 270,-128 270,-134 264,-140 258,-140"/>
<text text-anchor="middle" x="242" y="-125" font-family="sans" font-size="10.00">bowtie2</text>
<text text-anchor="middle" x="242" y="-114" font-family="sans" font-size="10.00">Hosts</text>
</g>
<!-- reference&#45;&gt;bowtie2_host -->
<g id="edge5" class="edge">
<title>reference&#45;&gt;bowtie2_host</title>
<path fill="none" stroke="grey" stroke-width="2" d="M82.14,-93.89C107.32,-97.47 145.2,-103.11 178,-109 186.36,-110.5 195.32,-112.26 203.77,-113.99"/>
<polygon fill="grey" stroke="grey" stroke-width="2" points="203.27,-117.46 213.77,-116.06 204.69,-110.6 203.27,-117.46"/>
</g>
<!-- fastp&#45;&gt;bowtie2_host -->
<g id="edge1" class="edge">
<title>fastp&#45;&gt;bowtie2_host</title>
<path fill="none" stroke="grey" stroke-width="2" d="M178.22,-125.66C186.17,-123.92 195.06,-122.37 203.59,-121.21"/>
<polygon fill="grey" stroke="grey" stroke-width="2" points="204.21,-124.66 213.73,-120.01 203.39,-117.71 204.21,-124.66"/>
</g>
<!-- fastp&#45;&gt;bowtie2_host -->
<g id="edge8" class="edge">
<title>fastp&#45;&gt;bowtie2_host</title>
<path fill="none" stroke="grey" stroke-width="2" d="M178.22,-138.09C186.26,-137.32 195.25,-136.06 203.87,-134.51"/>
<polygon fill="grey" stroke="grey" stroke-width="2" points="204.59,-137.93 213.73,-132.57 203.24,-131.06 204.59,-137.93"/>
</g>
<!-- bowtie2_host&#45;&gt;bowtie2_host -->
<g id="edge2" class="edge">
<title>bowtie2_host&#45;&gt;bowtie2_host</title>
<path fill="none" stroke="grey" stroke-width="2" d="M225.72,-140.15C223.21,-149.54 228.64,-158 242,-158 250.14,-158 255.34,-154.86 257.59,-150.28"/>
<polygon fill="grey" stroke="grey" stroke-width="2" points="261.09,-150.37 258.28,-140.15 254.1,-149.89 261.09,-150.37"/>
</g>
<!-- kraken2 -->
<g id="node6" class="node">
<title>kraken2</title>
<path fill="none" stroke="#d85e56" stroke-width="2" d="M350,-119C350,-119 318,-119 318,-119 312,-119 306,-113 306,-107 306,-107 306,-95 306,-95 306,-89 312,-83 318,-83 318,-83 350,-83 350,-83 356,-83 362,-89 362,-95 362,-95 362,-107 362,-107 362,-113 356,-119 350,-119"/>
<text text-anchor="middle" x="334" y="-98.5" font-family="sans" font-size="10.00">kraken2</text>
</g>
<!-- bowtie2_host&#45;&gt;kraken2 -->
<g id="edge7" class="edge">
<title>bowtie2_host&#45;&gt;kraken2</title>
<path fill="none" stroke="grey" stroke-width="2" d="M270,-115.7C278.12,-113.81 287.16,-111.7 295.81,-109.68"/>
<polygon fill="grey" stroke="grey" stroke-width="2" points="296.76,-113.05 305.71,-107.37 295.17,-106.23 296.76,-113.05"/>
</g>
<!-- extract -->
<g id="node7" class="node">
<title>extract</title>
<path fill="none" stroke="#d85e56" stroke-width="2" d="M440,-119C440,-119 410,-119 410,-119 404,-119 398,-113 398,-107 398,-107 398,-95 398,-95 398,-89 404,-83 410,-83 410,-83 440,-83 440,-83 446,-83 452,-89 452,-95 452,-95 452,-107 452,-107 452,-113 446,-119 440,-119"/>
<text text-anchor="middle" x="425" y="-104" font-family="sans" font-size="10.00">extract</text>
<text text-anchor="middle" x="425" y="-93" font-family="sans" font-size="10.00">reads</text>
</g>
<!-- kraken2&#45;&gt;extract -->
<g id="edge3" class="edge">
<title>kraken2&#45;&gt;extract</title>
<path fill="none" stroke="grey" stroke-width="2" d="M362.19,-101C370.25,-101 379.22,-101 387.77,-101"/>
<polygon fill="grey" stroke="grey" stroke-width="2" points="387.89,-104.5 397.89,-101 387.89,-97.5 387.89,-104.5"/>
</g>
<!-- extract&#45;&gt;bowtie2_pathogens -->
<g id="edge10" class="edge">
<title>extract&#45;&gt;bowtie2_pathogens</title>
<path fill="none" stroke="grey" stroke-width="2" d="M452.21,-93C460.19,-90.56 469.18,-87.82 477.97,-85.14"/>
<polygon fill="grey" stroke="grey" stroke-width="2" points="479.19,-88.42 487.74,-82.15 477.15,-81.73 479.19,-88.42"/>
</g>
<!-- coverm -->
<g id="node9" class="node">
<title>coverm</title>
<path fill="none" stroke="#88d856" stroke-width="2" d="M634,-90C634,-90 604,-90 604,-90 598,-90 592,-84 592,-78 592,-78 592,-66 592,-66 592,-60 598,-54 604,-54 604,-54 634,-54 634,-54 640,-54 646,-60 646,-66 646,-66 646,-78 646,-78 646,-84 640,-90 634,-90"/>
<text text-anchor="middle" x="619" y="-69.5" font-family="sans" font-size="10.00">coverm</text>
</g>
<!-- bowtie2_pathogens&#45;&gt;coverm -->
<g id="edge9" class="edge">
<title>bowtie2_pathogens&#45;&gt;coverm</title>
<path fill="none" stroke="grey" stroke-width="2" d="M556.23,-72C564.43,-72 573.26,-72 581.6,-72"/>
<polygon fill="grey" stroke="grey" stroke-width="2" points="581.82,-75.5 591.82,-72 581.82,-68.5 581.82,-75.5"/>
</g>
</g>
</svg>
